<svg xmlns="http://www.w3.org/2000/svg" width="980" height="600" viewBox="0 0 980 600">
<rect width="100%" height="100%" fill="white"/>
<text x="490.0" y="34.0" font-family="Arial, Helvetica, sans-serif" font-size="18" font-weight="700" text-anchor="middle" fill="#253041">Task hierarchy across best and average model performance</text>
<line x1="88" y1="468.0" x2="923" y2="468.0" stroke="#D7DDE8" stroke-width="1"/>
<text x="78.0" y="472.0" font-family="Arial, Helvetica, sans-serif" font-size="9" font-weight="400" text-anchor="end" fill="#6B7280">0.0</text>
<line x1="88" y1="390.0" x2="923" y2="390.0" stroke="#D7DDE8" stroke-width="1"/>
<text x="78.0" y="394.0" font-family="Arial, Helvetica, sans-serif" font-size="9" font-weight="400" text-anchor="end" fill="#6B7280">0.2</text>
<line x1="88" y1="312.0" x2="923" y2="312.0" stroke="#D7DDE8" stroke-width="1"/>
<text x="78.0" y="316.0" font-family="Arial, Helvetica, sans-serif" font-size="9" font-weight="400" text-anchor="end" fill="#6B7280">0.4</text>
<line x1="88" y1="234.0" x2="923" y2="234.0" stroke="#D7DDE8" stroke-width="1"/>
<text x="78.0" y="238.0" font-family="Arial, Helvetica, sans-serif" font-size="9" font-weight="400" text-anchor="end" fill="#6B7280">0.6</text>
<line x1="88" y1="156.0" x2="923" y2="156.0" stroke="#D7DDE8" stroke-width="1"/>
<text x="78.0" y="160.0" font-family="Arial, Helvetica, sans-serif" font-size="9" font-weight="400" text-anchor="end" fill="#6B7280">0.8</text>
<line x1="88" y1="78.0" x2="923" y2="78.0" stroke="#D7DDE8" stroke-width="1"/>
<text x="78.0" y="82.0" font-family="Arial, Helvetica, sans-serif" font-size="9" font-weight="400" text-anchor="end" fill="#6B7280">1.0</text>
<line x1="88.0" y1="78" x2="88.0" y2="468" stroke="#D7DDE8" stroke-width="1"/>
<text x="88.0" y="486.0" font-family="Arial, Helvetica, sans-serif" font-size="9" font-weight="400" text-anchor="middle" fill="#6B7280">0.0</text>
<line x1="255.0" y1="78" x2="255.0" y2="468" stroke="#D7DDE8" stroke-width="1"/>
<text x="255.0" y="486.0" font-family="Arial, Helvetica, sans-serif" font-size="9" font-weight="400" text-anchor="middle" fill="#6B7280">0.2</text>
<line x1="422.0" y1="78" x2="422.0" y2="468" stroke="#D7DDE8" stroke-width="1"/>
<text x="422.0" y="486.0" font-family="Arial, Helvetica, sans-serif" font-size="9" font-weight="400" text-anchor="middle" fill="#6B7280">0.4</text>
<line x1="589.0" y1="78" x2="589.0" y2="468" stroke="#D7DDE8" stroke-width="1"/>
<text x="589.0" y="486.0" font-family="Arial, Helvetica, sans-serif" font-size="9" font-weight="400" text-anchor="middle" fill="#6B7280">0.6</text>
<line x1="756.0" y1="78" x2="756.0" y2="468" stroke="#D7DDE8" stroke-width="1"/>
<text x="756.0" y="486.0" font-family="Arial, Helvetica, sans-serif" font-size="9" font-weight="400" text-anchor="middle" fill="#6B7280">0.8</text>
<line x1="923.0" y1="78" x2="923.0" y2="468" stroke="#D7DDE8" stroke-width="1"/>
<text x="923.0" y="486.0" font-family="Arial, Helvetica, sans-serif" font-size="9" font-weight="400" text-anchor="middle" fill="#6B7280">1.0</text>
<rect x="139.5" y="298.8" width="26" height="169.2" rx="2" fill="#9AA6B8"/>
<text x="152.5" y="292.8" font-family="Arial, Helvetica, sans-serif" font-size="9" font-weight="400" text-anchor="middle" fill="#9AA6B8">0.434</text>
<rect x="177.5" y="126.5" width="26" height="341.5" rx="2" fill="#3B82B8"/>
<text x="190.5" y="120.5" font-family="Arial, Helvetica, sans-serif" font-size="9" font-weight="400" text-anchor="middle" fill="#3B82B8">0.876</text>
<text x="171.5" y="514.0" font-family="Arial, Helvetica, sans-serif" font-size="10" font-weight="400" text-anchor="middle" fill="#253041">Has-vul F1</text>
<rect x="306.5" y="383.1" width="26" height="84.9" rx="2" fill="#9AA6B8"/>
<text x="319.5" y="377.1" font-family="Arial, Helvetica, sans-serif" font-size="9" font-weight="400" text-anchor="middle" fill="#9AA6B8">0.218</text>
<rect x="344.5" y="282.6" width="26" height="185.4" rx="2" fill="#3B82B8"/>
<text x="357.5" y="276.6" font-family="Arial, Helvetica, sans-serif" font-size="9" font-weight="400" text-anchor="middle" fill="#3B82B8">0.475</text>
<text x="338.5" y="514.0" font-family="Arial, Helvetica, sans-serif" font-size="10" font-weight="400" text-anchor="middle" fill="#253041">Type macro-F1</text>
<rect x="473.5" y="418.4" width="26" height="49.6" rx="2" fill="#9AA6B8"/>
<text x="486.5" y="412.4" font-family="Arial, Helvetica, sans-serif" font-size="9" font-weight="400" text-anchor="middle" fill="#9AA6B8">0.127</text>
<rect x="511.5" y="352.8" width="26" height="115.2" rx="2" fill="#3B82B8"/>
<text x="524.5" y="346.8" font-family="Arial, Helvetica, sans-serif" font-size="9" font-weight="400" text-anchor="middle" fill="#3B82B8">0.295</text>
<text x="505.5" y="514.0" font-family="Arial, Helvetica, sans-serif" font-size="10" font-weight="400" text-anchor="middle" fill="#253041">Line strict-F1</text>
<rect x="640.5" y="389.1" width="26" height="78.9" rx="2" fill="#9AA6B8"/>
<text x="653.5" y="383.1" font-family="Arial, Helvetica, sans-serif" font-size="9" font-weight="400" text-anchor="middle" fill="#9AA6B8">0.202</text>
<rect x="678.5" y="311.2" width="26" height="156.8" rx="2" fill="#3B82B8"/>
<text x="691.5" y="305.2" font-family="Arial, Helvetica, sans-serif" font-size="9" font-weight="400" text-anchor="middle" fill="#3B82B8">0.402</text>
<text x="672.5" y="514.0" font-family="Arial, Helvetica, sans-serif" font-size="10" font-weight="400" text-anchor="middle" fill="#253041">Line</text>
<text x="672.5" y="527.0" font-family="Arial, Helvetica, sans-serif" font-size="10" font-weight="400" text-anchor="middle" fill="#253041">tolerant-F1</text>
<rect x="807.5" y="293.2" width="26" height="174.8" rx="2" fill="#9AA6B8"/>
<text x="820.5" y="287.2" font-family="Arial, Helvetica, sans-serif" font-size="9" font-weight="400" text-anchor="middle" fill="#9AA6B8">0.448</text>
<rect x="845.5" y="138.4" width="26" height="329.6" rx="2" fill="#3B82B8"/>
<text x="858.5" y="132.4" font-family="Arial, Helvetica, sans-serif" font-size="9" font-weight="400" text-anchor="middle" fill="#3B82B8">0.845</text>
<text x="839.5" y="514.0" font-family="Arial, Helvetica, sans-serif" font-size="10" font-weight="400" text-anchor="middle" fill="#253041">Line</text>
<text x="839.5" y="527.0" font-family="Arial, Helvetica, sans-serif" font-size="10" font-weight="400" text-anchor="middle" fill="#253041">contract-hit</text>
<rect x="760" y="520" width="14" height="14" fill="#9AA6B8"/>
<text x="780.0" y="531.0" font-family="Arial, Helvetica, sans-serif" font-size="11" font-weight="400" text-anchor="start" fill="#253041">mean</text>
<rect x="842" y="520" width="14" height="14" fill="#3B82B8"/>
<text x="862.0" y="531.0" font-family="Arial, Helvetica, sans-serif" font-size="11" font-weight="400" text-anchor="start" fill="#253041">best</text>
<text x="505.5" y="568.0" font-family="Arial, Helvetica, sans-serif" font-size="11" font-weight="400" text-anchor="middle" fill="#6B7280">Scores are task-specific metrics; higher is better.</text>
</svg>