<svg xmlns="http://www.w3.org/2000/svg" width="1120" height="630" viewBox="0 0 1120 630">
<rect width="100%" height="100%" fill="white"/>
<text x="560.0" y="34.0" font-family="Arial, Helvetica, sans-serif" font-size="18" font-weight="700" text-anchor="middle" fill="#253041">Prompt ablation: task scores and output failures diverge</text>
<text x="229.0" y="66.0" font-family="Arial, Helvetica, sans-serif" font-size="13" font-weight="700" text-anchor="middle" fill="#253041">Type macro-F1</text>
<line x1="74" y1="448.0" x2="384" y2="448.0" stroke="#D7DDE8" stroke-width="1"/>
<text x="64.0" y="452.0" font-family="Arial, Helvetica, sans-serif" font-size="9" font-weight="400" text-anchor="end" fill="#6B7280">0.0</text>
<line x1="74" y1="376.0" x2="384" y2="376.0" stroke="#D7DDE8" stroke-width="1"/>
<text x="64.0" y="380.0" font-family="Arial, Helvetica, sans-serif" font-size="9" font-weight="400" text-anchor="end" fill="#6B7280">0.2</text>
<line x1="74" y1="304.0" x2="384" y2="304.0" stroke="#D7DDE8" stroke-width="1"/>
<text x="64.0" y="308.0" font-family="Arial, Helvetica, sans-serif" font-size="9" font-weight="400" text-anchor="end" fill="#6B7280">0.4</text>
<line x1="74" y1="232.0" x2="384" y2="232.0" stroke="#D7DDE8" stroke-width="1"/>
<text x="64.0" y="236.0" font-family="Arial, Helvetica, sans-serif" font-size="9" font-weight="400" text-anchor="end" fill="#6B7280">0.6</text>
<line x1="74" y1="160.0" x2="384" y2="160.0" stroke="#D7DDE8" stroke-width="1"/>
<text x="64.0" y="164.0" font-family="Arial, Helvetica, sans-serif" font-size="9" font-weight="400" text-anchor="end" fill="#6B7280">0.8</text>
<line x1="74" y1="88.0" x2="384" y2="88.0" stroke="#D7DDE8" stroke-width="1"/>
<text x="64.0" y="92.0" font-family="Arial, Helvetica, sans-serif" font-size="9" font-weight="400" text-anchor="end" fill="#6B7280">1.0</text>
<rect x="117.5" y="345.0" width="14" height="103.0" fill="#64748B"/>
<text x="124.5" y="340.0" font-family="Arial, Helvetica, sans-serif" font-size="8" font-weight="400" text-anchor="middle" fill="#6B7280">0.29</text>
<rect x="134.5" y="354.3" width="14" height="93.7" fill="#C9893F"/>
<text x="141.5" y="349.3" font-family="Arial, Helvetica, sans-serif" font-size="8" font-weight="400" text-anchor="middle" fill="#6B7280">0.26</text>
<rect x="151.5" y="364.2" width="14" height="83.8" fill="#2A9D78"/>
<text x="158.5" y="359.2" font-family="Arial, Helvetica, sans-serif" font-size="8" font-weight="400" text-anchor="middle" fill="#6B7280">0.23</text>
<rect x="168.5" y="370.5" width="14" height="77.5" fill="#C44E52"/>
<text x="175.5" y="365.5" font-family="Arial, Helvetica, sans-serif" font-size="8" font-weight="400" text-anchor="middle" fill="#6B7280">0.22</text>
<text x="151.5" y="478.0" font-family="Arial, Helvetica, sans-serif" font-size="10" font-weight="400" text-anchor="middle" fill="#6B7280">7B</text>
<rect x="272.5" y="353.9" width="14" height="94.1" fill="#64748B"/>
<text x="279.5" y="348.9" font-family="Arial, Helvetica, sans-serif" font-size="8" font-weight="400" text-anchor="middle" fill="#6B7280">0.26</text>
<rect x="289.5" y="350.6" width="14" height="97.4" fill="#C9893F"/>
<text x="296.5" y="345.6" font-family="Arial, Helvetica, sans-serif" font-size="8" font-weight="400" text-anchor="middle" fill="#6B7280">0.27</text>
<rect x="306.5" y="357.4" width="14" height="90.6" fill="#2A9D78"/>
<text x="313.5" y="352.4" font-family="Arial, Helvetica, sans-serif" font-size="8" font-weight="400" text-anchor="middle" fill="#6B7280">0.25</text>
<rect x="323.5" y="364.0" width="14" height="84.0" fill="#C44E52"/>
<text x="330.5" y="359.0" font-family="Arial, Helvetica, sans-serif" font-size="8" font-weight="400" text-anchor="middle" fill="#6B7280">0.23</text>
<text x="306.5" y="478.0" font-family="Arial, Helvetica, sans-serif" font-size="10" font-weight="400" text-anchor="middle" fill="#6B7280">32B</text>
<text x="583.0" y="66.0" font-family="Arial, Helvetica, sans-serif" font-size="13" font-weight="700" text-anchor="middle" fill="#253041">Line tolerant-F1</text>
<line x1="428" y1="448.0" x2="738" y2="448.0" stroke="#D7DDE8" stroke-width="1"/>
<text x="418.0" y="452.0" font-family="Arial, Helvetica, sans-serif" font-size="9" font-weight="400" text-anchor="end" fill="#6B7280">0.0</text>
<line x1="428" y1="376.0" x2="738" y2="376.0" stroke="#D7DDE8" stroke-width="1"/>
<text x="418.0" y="380.0" font-family="Arial, Helvetica, sans-serif" font-size="9" font-weight="400" text-anchor="end" fill="#6B7280">0.2</text>
<line x1="428" y1="304.0" x2="738" y2="304.0" stroke="#D7DDE8" stroke-width="1"/>
<text x="418.0" y="308.0" font-family="Arial, Helvetica, sans-serif" font-size="9" font-weight="400" text-anchor="end" fill="#6B7280">0.4</text>
<line x1="428" y1="232.0" x2="738" y2="232.0" stroke="#D7DDE8" stroke-width="1"/>
<text x="418.0" y="236.0" font-family="Arial, Helvetica, sans-serif" font-size="9" font-weight="400" text-anchor="end" fill="#6B7280">0.6</text>
<line x1="428" y1="160.0" x2="738" y2="160.0" stroke="#D7DDE8" stroke-width="1"/>
<text x="418.0" y="164.0" font-family="Arial, Helvetica, sans-serif" font-size="9" font-weight="400" text-anchor="end" fill="#6B7280">0.8</text>
<line x1="428" y1="88.0" x2="738" y2="88.0" stroke="#D7DDE8" stroke-width="1"/>
<text x="418.0" y="92.0" font-family="Arial, Helvetica, sans-serif" font-size="9" font-weight="400" text-anchor="end" fill="#6B7280">1.0</text>
<rect x="471.5" y="417.0" width="14" height="31.0" fill="#64748B"/>
<text x="478.5" y="412.0" font-family="Arial, Helvetica, sans-serif" font-size="8" font-weight="400" text-anchor="middle" fill="#6B7280">0.09</text>
<rect x="488.5" y="416.6" width="14" height="31.4" fill="#C9893F"/>
<text x="495.5" y="411.6" font-family="Arial, Helvetica, sans-serif" font-size="8" font-weight="400" text-anchor="middle" fill="#6B7280">0.09</text>
<rect x="505.5" y="414.9" width="14" height="33.1" fill="#2A9D78"/>
<text x="512.5" y="409.9" font-family="Arial, Helvetica, sans-serif" font-size="8" font-weight="400" text-anchor="middle" fill="#6B7280">0.09</text>
<rect x="522.5" y="415.8" width="14" height="32.2" fill="#C44E52"/>
<text x="529.5" y="410.8" font-family="Arial, Helvetica, sans-serif" font-size="8" font-weight="400" text-anchor="middle" fill="#6B7280">0.09</text>
<text x="505.5" y="478.0" font-family="Arial, Helvetica, sans-serif" font-size="10" font-weight="400" text-anchor="middle" fill="#6B7280">7B</text>
<rect x="626.5" y="403.7" width="14" height="44.3" fill="#64748B"/>
<text x="633.5" y="398.7" font-family="Arial, Helvetica, sans-serif" font-size="8" font-weight="400" text-anchor="middle" fill="#6B7280">0.12</text>
<rect x="643.5" y="411.4" width="14" height="36.6" fill="#C9893F"/>
<text x="650.5" y="406.4" font-family="Arial, Helvetica, sans-serif" font-size="8" font-weight="400" text-anchor="middle" fill="#6B7280">0.10</text>
<rect x="660.5" y="435.6" width="14" height="12.4" fill="#2A9D78"/>
<text x="667.5" y="430.6" font-family="Arial, Helvetica, sans-serif" font-size="8" font-weight="400" text-anchor="middle" fill="#6B7280">0.03</text>
<rect x="677.5" y="430.4" width="14" height="17.6" fill="#C44E52"/>
<text x="684.5" y="425.4" font-family="Arial, Helvetica, sans-serif" font-size="8" font-weight="400" text-anchor="middle" fill="#6B7280">0.05</text>
<text x="660.5" y="478.0" font-family="Arial, Helvetica, sans-serif" font-size="10" font-weight="400" text-anchor="middle" fill="#6B7280">32B</text>
<text x="937.0" y="66.0" font-family="Arial, Helvetica, sans-serif" font-size="13" font-weight="700" text-anchor="middle" fill="#253041">Empty output rate</text>
<line x1="782" y1="448.0" x2="1092" y2="448.0" stroke="#D7DDE8" stroke-width="1"/>
<text x="772.0" y="452.0" font-family="Arial, Helvetica, sans-serif" font-size="9" font-weight="400" text-anchor="end" fill="#6B7280">0.0</text>
<line x1="782" y1="376.0" x2="1092" y2="376.0" stroke="#D7DDE8" stroke-width="1"/>
<text x="772.0" y="380.0" font-family="Arial, Helvetica, sans-serif" font-size="9" font-weight="400" text-anchor="end" fill="#6B7280">0.2</text>
<line x1="782" y1="304.0" x2="1092" y2="304.0" stroke="#D7DDE8" stroke-width="1"/>
<text x="772.0" y="308.0" font-family="Arial, Helvetica, sans-serif" font-size="9" font-weight="400" text-anchor="end" fill="#6B7280">0.4</text>
<line x1="782" y1="232.0" x2="1092" y2="232.0" stroke="#D7DDE8" stroke-width="1"/>
<text x="772.0" y="236.0" font-family="Arial, Helvetica, sans-serif" font-size="9" font-weight="400" text-anchor="end" fill="#6B7280">0.6</text>
<line x1="782" y1="160.0" x2="1092" y2="160.0" stroke="#D7DDE8" stroke-width="1"/>
<text x="772.0" y="164.0" font-family="Arial, Helvetica, sans-serif" font-size="9" font-weight="400" text-anchor="end" fill="#6B7280">0.8</text>
<line x1="782" y1="88.0" x2="1092" y2="88.0" stroke="#D7DDE8" stroke-width="1"/>
<text x="772.0" y="92.0" font-family="Arial, Helvetica, sans-serif" font-size="9" font-weight="400" text-anchor="end" fill="#6B7280">1.0</text>
<rect x="825.5" y="439.1" width="14" height="8.9" fill="#64748B"/>
<text x="832.5" y="434.1" font-family="Arial, Helvetica, sans-serif" font-size="8" font-weight="400" text-anchor="middle" fill="#6B7280">0.02</text>
<rect x="842.5" y="421.2" width="14" height="26.8" fill="#C9893F"/>
<text x="849.5" y="416.2" font-family="Arial, Helvetica, sans-serif" font-size="8" font-weight="400" text-anchor="middle" fill="#6B7280">0.07</text>
<rect x="859.5" y="300.4" width="14" height="147.6" fill="#2A9D78"/>
<text x="866.5" y="295.4" font-family="Arial, Helvetica, sans-serif" font-size="8" font-weight="400" text-anchor="middle" fill="#6B7280">0.41</text>
<rect x="876.5" y="300.4" width="14" height="147.6" fill="#C44E52"/>
<text x="883.5" y="295.4" font-family="Arial, Helvetica, sans-serif" font-size="8" font-weight="400" text-anchor="middle" fill="#6B7280">0.41</text>
<text x="859.5" y="478.0" font-family="Arial, Helvetica, sans-serif" font-size="10" font-weight="400" text-anchor="middle" fill="#6B7280">7B</text>
<rect x="980.5" y="445.8" width="14" height="2.2" fill="#64748B"/>
<text x="987.5" y="440.8" font-family="Arial, Helvetica, sans-serif" font-size="8" font-weight="400" text-anchor="middle" fill="#6B7280">0.01</text>
<rect x="997.5" y="427.9" width="14" height="20.1" fill="#C9893F"/>
<text x="1004.5" y="422.9" font-family="Arial, Helvetica, sans-serif" font-size="8" font-weight="400" text-anchor="middle" fill="#6B7280">0.06</text>
<rect x="1014.5" y="226.6" width="14" height="221.4" fill="#2A9D78"/>
<text x="1021.5" y="221.6" font-family="Arial, Helvetica, sans-serif" font-size="8" font-weight="400" text-anchor="middle" fill="#6B7280">0.61</text>
<rect x="1031.5" y="246.8" width="14" height="201.2" fill="#C44E52"/>
<text x="1038.5" y="241.8" font-family="Arial, Helvetica, sans-serif" font-size="8" font-weight="400" text-anchor="middle" fill="#6B7280">0.56</text>
<text x="1014.5" y="478.0" font-family="Arial, Helvetica, sans-serif" font-size="10" font-weight="400" text-anchor="middle" fill="#6B7280">32B</text>
<rect x="398" y="570" width="14" height="14" fill="#64748B"/>
<text x="418.0" y="581.0" font-family="Arial, Helvetica, sans-serif" font-size="11" font-weight="400" text-anchor="start" fill="#253041">P0</text>
<rect x="480" y="570" width="14" height="14" fill="#C9893F"/>
<text x="500.0" y="581.0" font-family="Arial, Helvetica, sans-serif" font-size="11" font-weight="400" text-anchor="start" fill="#253041">P1</text>
<rect x="562" y="570" width="14" height="14" fill="#2A9D78"/>
<text x="582.0" y="581.0" font-family="Arial, Helvetica, sans-serif" font-size="11" font-weight="400" text-anchor="start" fill="#253041">P2</text>
<rect x="644" y="570" width="14" height="14" fill="#C44E52"/>
<text x="664.0" y="581.0" font-family="Arial, Helvetica, sans-serif" font-size="11" font-weight="400" text-anchor="start" fill="#253041">P3</text>
</svg>