<svg xmlns="http://www.w3.org/2000/svg" width="1000" height="620" viewBox="0 0 1000 620">
<rect width="100%" height="100%" fill="white"/>
<text x="500.0" y="34.0" font-family="Arial, Helvetica, sans-serif" font-size="18" font-weight="700" text-anchor="middle" fill="#253041">Performance-cost trade-offs expose deployment-relevant choices</text>
<text x="207.0" y="66.0" font-family="Arial, Helvetica, sans-serif" font-size="13" font-weight="700" text-anchor="middle" fill="#253041">Has-F1</text>
<line x1="64" y1="460.0" x2="350" y2="460.0" stroke="#D7DDE8" stroke-width="1"/>
<text x="56.0" y="464.0" font-family="Arial, Helvetica, sans-serif" font-size="8" font-weight="400" text-anchor="end" fill="#6B7280">0.0</text>
<line x1="64" y1="386.0" x2="350" y2="386.0" stroke="#D7DDE8" stroke-width="1"/>
<text x="56.0" y="390.0" font-family="Arial, Helvetica, sans-serif" font-size="8" font-weight="400" text-anchor="end" fill="#6B7280">0.2</text>
<line x1="64" y1="312.0" x2="350" y2="312.0" stroke="#D7DDE8" stroke-width="1"/>
<text x="56.0" y="316.0" font-family="Arial, Helvetica, sans-serif" font-size="8" font-weight="400" text-anchor="end" fill="#6B7280">0.4</text>
<line x1="64" y1="238.0" x2="350" y2="238.0" stroke="#D7DDE8" stroke-width="1"/>
<text x="56.0" y="242.0" font-family="Arial, Helvetica, sans-serif" font-size="8" font-weight="400" text-anchor="end" fill="#6B7280">0.6</text>
<line x1="64" y1="164.0" x2="350" y2="164.0" stroke="#D7DDE8" stroke-width="1"/>
<text x="56.0" y="168.0" font-family="Arial, Helvetica, sans-serif" font-size="8" font-weight="400" text-anchor="end" fill="#6B7280">0.8</text>
<line x1="64" y1="90.0" x2="350" y2="90.0" stroke="#D7DDE8" stroke-width="1"/>
<text x="56.0" y="94.0" font-family="Arial, Helvetica, sans-serif" font-size="8" font-weight="400" text-anchor="end" fill="#6B7280">1.0</text>
<circle cx="276.4" cy="408.2" r="4.8" fill="#5A6E8C" fill-opacity="0.7" stroke="white" stroke-width="0.8"/>
<circle cx="276.8" cy="356.3" r="4.8" fill="#C9893F" fill-opacity="0.7" stroke="white" stroke-width="0.8"/>
<circle cx="311.0" cy="174.8" r="4.8" fill="#2A9D78" fill-opacity="0.7" stroke="white" stroke-width="0.8"/>
<circle cx="223.6" cy="445.9" r="4.8" fill="#5A6E8C" fill-opacity="0.7" stroke="white" stroke-width="0.8"/>
<circle cx="276.8" cy="145.7" r="4.8" fill="#C44E52" fill-opacity="0.7" stroke="white" stroke-width="0.8"/>
<circle cx="224.6" cy="424.8" r="4.8" fill="#C9893F" fill-opacity="0.7" stroke="white" stroke-width="0.8"/>
<circle cx="244.3" cy="197.9" r="4.8" fill="#2A9D78" fill-opacity="0.7" stroke="white" stroke-width="0.8"/>
<circle cx="243.8" cy="435.4" r="4.8" fill="#5A6E8C" fill-opacity="0.7" stroke="white" stroke-width="0.8"/>
<circle cx="244.4" cy="422.6" r="4.8" fill="#C9893F" fill-opacity="0.7" stroke="white" stroke-width="0.8"/>
<circle cx="277.6" cy="179.8" r="4.8" fill="#2A9D78" fill-opacity="0.7" stroke="white" stroke-width="0.8"/>
<circle cx="271.7" cy="418.9" r="4.8" fill="#5A6E8C" fill-opacity="0.7" stroke="white" stroke-width="0.8"/>
<circle cx="272.1" cy="367.1" r="4.8" fill="#C9893F" fill-opacity="0.7" stroke="white" stroke-width="0.8"/>
<circle cx="303.5" cy="172.7" r="4.8" fill="#2A9D78" fill-opacity="0.7" stroke="white" stroke-width="0.8"/>
<circle cx="305.3" cy="397.4" r="4.8" fill="#5A6E8C" fill-opacity="0.7" stroke="white" stroke-width="0.8"/>
<circle cx="309.2" cy="396.4" r="4.8" fill="#C9893F" fill-opacity="0.7" stroke="white" stroke-width="0.8"/>
<circle cx="348.1" cy="168.6" r="4.8" fill="#2A9D78" fill-opacity="0.7" stroke="white" stroke-width="0.8"/>
<circle cx="245.5" cy="381.2" r="4.8" fill="#5A6E8C" fill-opacity="0.7" stroke="white" stroke-width="0.8"/>
<circle cx="246.2" cy="366.9" r="4.8" fill="#C9893F" fill-opacity="0.7" stroke="white" stroke-width="0.8"/>
<circle cx="276.2" cy="172.1" r="4.8" fill="#2A9D78" fill-opacity="0.7" stroke="white" stroke-width="0.8"/>
<circle cx="240.1" cy="425.2" r="4.8" fill="#5A6E8C" fill-opacity="0.7" stroke="white" stroke-width="0.8"/>
<circle cx="266.1" cy="140.0" r="4.8" fill="#C44E52" fill-opacity="0.7" stroke="white" stroke-width="0.8"/>
<circle cx="228.1" cy="419.4" r="4.8" fill="#C9893F" fill-opacity="0.7" stroke="white" stroke-width="0.8"/>
<circle cx="250.5" cy="163.0" r="4.8" fill="#2A9D78" fill-opacity="0.7" stroke="white" stroke-width="0.8"/>
<circle cx="311.1" cy="433.0" r="4.8" fill="#5A6E8C" fill-opacity="0.7" stroke="white" stroke-width="0.8"/>
<circle cx="311.3" cy="402.2" r="4.8" fill="#C9893F" fill-opacity="0.7" stroke="white" stroke-width="0.8"/>
<circle cx="350.0" cy="460.0" r="4.8" fill="#2A9D78" fill-opacity="0.7" stroke="white" stroke-width="0.8"/>
<circle cx="245.8" cy="433.4" r="4.8" fill="#5A6E8C" fill-opacity="0.7" stroke="white" stroke-width="0.8"/>
<circle cx="246.2" cy="413.0" r="4.8" fill="#C9893F" fill-opacity="0.7" stroke="white" stroke-width="0.8"/>
<circle cx="275.9" cy="153.8" r="4.8" fill="#2A9D78" fill-opacity="0.7" stroke="white" stroke-width="0.8"/>
<circle cx="233.9" cy="426.3" r="4.8" fill="#5A6E8C" fill-opacity="0.7" stroke="white" stroke-width="0.8"/>
<circle cx="210.7" cy="429.7" r="4.8" fill="#5A6E8C" fill-opacity="0.7" stroke="white" stroke-width="0.8"/>
<circle cx="253.1" cy="143.7" r="4.8" fill="#C44E52" fill-opacity="0.7" stroke="white" stroke-width="0.8"/>
<circle cx="224.7" cy="368.8" r="4.8" fill="#C9893F" fill-opacity="0.7" stroke="white" stroke-width="0.8"/>
<circle cx="214.4" cy="369.4" r="4.8" fill="#C9893F" fill-opacity="0.7" stroke="white" stroke-width="0.8"/>
<circle cx="233.0" cy="161.8" r="4.8" fill="#2A9D78" fill-opacity="0.7" stroke="white" stroke-width="0.8"/>
<circle cx="249.8" cy="396.0" r="4.8" fill="#5A6E8C" fill-opacity="0.7" stroke="white" stroke-width="0.8"/>
<circle cx="253.7" cy="414.5" r="4.8" fill="#C9893F" fill-opacity="0.7" stroke="white" stroke-width="0.8"/>
<circle cx="285.7" cy="173.4" r="4.8" fill="#2A9D78" fill-opacity="0.7" stroke="white" stroke-width="0.8"/>
<circle cx="282.1" cy="366.5" r="4.8" fill="#5A6E8C" fill-opacity="0.7" stroke="white" stroke-width="0.8"/>
<circle cx="282.5" cy="356.3" r="4.8" fill="#C9893F" fill-opacity="0.7" stroke="white" stroke-width="0.8"/>
<circle cx="320.0" cy="190.7" r="4.8" fill="#2A9D78" fill-opacity="0.7" stroke="white" stroke-width="0.8"/>
<circle cx="237.6" cy="408.6" r="4.8" fill="#5A6E8C" fill-opacity="0.7" stroke="white" stroke-width="0.8"/>
<circle cx="282.3" cy="136.1" r="4.8" fill="#C44E52" fill-opacity="0.7" stroke="white" stroke-width="0.8"/>
<circle cx="238.0" cy="366.3" r="4.8" fill="#C9893F" fill-opacity="0.7" stroke="white" stroke-width="0.8"/>
<circle cx="256.1" cy="174.3" r="4.8" fill="#2A9D78" fill-opacity="0.7" stroke="white" stroke-width="0.8"/>
<circle cx="250.4" cy="311.5" r="4.8" fill="#5A6E8C" fill-opacity="0.7" stroke="white" stroke-width="0.8"/>
<circle cx="251.3" cy="302.2" r="4.8" fill="#C9893F" fill-opacity="0.7" stroke="white" stroke-width="0.8"/>
<circle cx="289.2" cy="172.8" r="4.8" fill="#2A9D78" fill-opacity="0.7" stroke="white" stroke-width="0.8"/>
<circle cx="181.7" cy="154.9" r="4.8" fill="#C44E52" fill-opacity="0.7" stroke="white" stroke-width="0.8"/>
<circle cx="182.1" cy="148.5" r="4.8" fill="#C44E52" fill-opacity="0.7" stroke="white" stroke-width="0.8"/>
<circle cx="180.8" cy="141.3" r="4.8" fill="#C44E52" fill-opacity="0.7" stroke="white" stroke-width="0.8"/>
<circle cx="204.5" cy="450.5" r="4.8" fill="#5A6E8C" fill-opacity="0.7" stroke="white" stroke-width="0.8"/>
<circle cx="223.2" cy="136.0" r="4.8" fill="#C44E52" fill-opacity="0.7" stroke="white" stroke-width="0.8"/>
<circle cx="207.4" cy="447.0" r="4.8" fill="#C9893F" fill-opacity="0.7" stroke="white" stroke-width="0.8"/>
<circle cx="224.4" cy="187.1" r="4.8" fill="#2A9D78" fill-opacity="0.7" stroke="white" stroke-width="0.8"/>
<circle cx="174.7" cy="440.6" r="4.8" fill="#5A6E8C" fill-opacity="0.7" stroke="white" stroke-width="0.8"/>
<circle cx="272.0" cy="136.0" r="4.8" fill="#C44E52" fill-opacity="0.7" stroke="white" stroke-width="0.8"/>
<circle cx="177.2" cy="444.9" r="4.8" fill="#C9893F" fill-opacity="0.7" stroke="white" stroke-width="0.8"/>
<circle cx="264.0" cy="178.8" r="4.8" fill="#2A9D78" fill-opacity="0.7" stroke="white" stroke-width="0.8"/>
<circle cx="236.7" cy="355.1" r="4.8" fill="#5A6E8C" fill-opacity="0.7" stroke="white" stroke-width="0.8"/>
<circle cx="237.4" cy="393.6" r="4.8" fill="#C9893F" fill-opacity="0.7" stroke="white" stroke-width="0.8"/>
<circle cx="309.8" cy="174.4" r="4.8" fill="#2A9D78" fill-opacity="0.7" stroke="white" stroke-width="0.8"/>
<circle cx="279.6" cy="360.6" r="4.8" fill="#5A6E8C" fill-opacity="0.7" stroke="white" stroke-width="0.8"/>
<circle cx="279.1" cy="368.5" r="4.8" fill="#C9893F" fill-opacity="0.7" stroke="white" stroke-width="0.8"/>
<circle cx="349.6" cy="179.3" r="4.8" fill="#2A9D78" fill-opacity="0.7" stroke="white" stroke-width="0.8"/>
<circle cx="344.3" cy="341.1" r="4.8" fill="#5A6E8C" fill-opacity="0.7" stroke="white" stroke-width="0.8"/>
<circle cx="329.3" cy="136.5" r="4.8" fill="#C44E52" fill-opacity="0.7" stroke="white" stroke-width="0.8"/>
<circle cx="224.9" cy="393.7" r="4.8" fill="#C9893F" fill-opacity="0.7" stroke="white" stroke-width="0.8"/>
<circle cx="293.0" cy="168.8" r="4.8" fill="#2A9D78" fill-opacity="0.7" stroke="white" stroke-width="0.8"/>
<circle cx="221.6" cy="376.2" r="4.8" fill="#5A6E8C" fill-opacity="0.7" stroke="white" stroke-width="0.8"/>
<circle cx="222.4" cy="409.7" r="4.8" fill="#C9893F" fill-opacity="0.7" stroke="white" stroke-width="0.8"/>
<circle cx="277.7" cy="178.4" r="4.8" fill="#2A9D78" fill-opacity="0.7" stroke="white" stroke-width="0.8"/>
<circle cx="218.3" cy="155.6" r="4.8" fill="#C44E52" fill-opacity="0.7" stroke="white" stroke-width="0.8"/>
<circle cx="247.1" cy="214.8" r="4.8" fill="#2A9D78" fill-opacity="0.7" stroke="white" stroke-width="0.8"/>
<circle cx="263.7" cy="405.9" r="4.8" fill="#5A6E8C" fill-opacity="0.7" stroke="white" stroke-width="0.8"/>
<circle cx="263.8" cy="360.9" r="4.8" fill="#C9893F" fill-opacity="0.7" stroke="white" stroke-width="0.8"/>
<circle cx="321.0" cy="188.2" r="4.8" fill="#2A9D78" fill-opacity="0.7" stroke="white" stroke-width="0.8"/>
<text x="207.0" y="488.0" font-family="Arial, Helvetica, sans-serif" font-size="9" font-weight="400" text-anchor="middle" fill="#6B7280">runtime minutes (log scale)</text>
<text x="531.0" y="66.0" font-family="Arial, Helvetica, sans-serif" font-size="13" font-weight="700" text-anchor="middle" fill="#253041">Type macro-F1</text>
<line x1="388" y1="460.0" x2="674" y2="460.0" stroke="#D7DDE8" stroke-width="1"/>
<text x="380.0" y="464.0" font-family="Arial, Helvetica, sans-serif" font-size="8" font-weight="400" text-anchor="end" fill="#6B7280">0.0</text>
<line x1="388" y1="386.0" x2="674" y2="386.0" stroke="#D7DDE8" stroke-width="1"/>
<text x="380.0" y="390.0" font-family="Arial, Helvetica, sans-serif" font-size="8" font-weight="400" text-anchor="end" fill="#6B7280">0.2</text>
<line x1="388" y1="312.0" x2="674" y2="312.0" stroke="#D7DDE8" stroke-width="1"/>
<text x="380.0" y="316.0" font-family="Arial, Helvetica, sans-serif" font-size="8" font-weight="400" text-anchor="end" fill="#6B7280">0.4</text>
<line x1="388" y1="238.0" x2="674" y2="238.0" stroke="#D7DDE8" stroke-width="1"/>
<text x="380.0" y="242.0" font-family="Arial, Helvetica, sans-serif" font-size="8" font-weight="400" text-anchor="end" fill="#6B7280">0.6</text>
<line x1="388" y1="164.0" x2="674" y2="164.0" stroke="#D7DDE8" stroke-width="1"/>
<text x="380.0" y="168.0" font-family="Arial, Helvetica, sans-serif" font-size="8" font-weight="400" text-anchor="end" fill="#6B7280">0.8</text>
<line x1="388" y1="90.0" x2="674" y2="90.0" stroke="#D7DDE8" stroke-width="1"/>
<text x="380.0" y="94.0" font-family="Arial, Helvetica, sans-serif" font-size="8" font-weight="400" text-anchor="end" fill="#6B7280">1.0</text>
<circle cx="583.4" cy="419.0" r="4.8" fill="#5A6E8C" fill-opacity="0.7" stroke="white" stroke-width="0.8"/>
<circle cx="584.0" cy="438.5" r="4.8" fill="#C9893F" fill-opacity="0.7" stroke="white" stroke-width="0.8"/>
<circle cx="638.6" cy="323.8" r="4.8" fill="#2A9D78" fill-opacity="0.7" stroke="white" stroke-width="0.8"/>
<circle cx="534.4" cy="424.0" r="4.8" fill="#5A6E8C" fill-opacity="0.7" stroke="white" stroke-width="0.8"/>
<circle cx="606.3" cy="293.3" r="4.8" fill="#C44E52" fill-opacity="0.7" stroke="white" stroke-width="0.8"/>
<circle cx="535.9" cy="441.4" r="4.8" fill="#C9893F" fill-opacity="0.7" stroke="white" stroke-width="0.8"/>
<circle cx="576.0" cy="365.4" r="4.8" fill="#2A9D78" fill-opacity="0.7" stroke="white" stroke-width="0.8"/>
<circle cx="552.7" cy="425.6" r="4.8" fill="#5A6E8C" fill-opacity="0.7" stroke="white" stroke-width="0.8"/>
<circle cx="553.9" cy="440.7" r="4.8" fill="#C9893F" fill-opacity="0.7" stroke="white" stroke-width="0.8"/>
<circle cx="607.1" cy="354.2" r="4.8" fill="#2A9D78" fill-opacity="0.7" stroke="white" stroke-width="0.8"/>
<circle cx="578.9" cy="430.2" r="4.8" fill="#5A6E8C" fill-opacity="0.7" stroke="white" stroke-width="0.8"/>
<circle cx="579.6" cy="441.4" r="4.8" fill="#C9893F" fill-opacity="0.7" stroke="white" stroke-width="0.8"/>
<circle cx="632.5" cy="320.6" r="4.8" fill="#2A9D78" fill-opacity="0.7" stroke="white" stroke-width="0.8"/>
<circle cx="611.3" cy="428.9" r="4.8" fill="#5A6E8C" fill-opacity="0.7" stroke="white" stroke-width="0.8"/>
<circle cx="614.7" cy="440.4" r="4.8" fill="#C9893F" fill-opacity="0.7" stroke="white" stroke-width="0.8"/>
<circle cx="674.0" cy="318.7" r="4.8" fill="#2A9D78" fill-opacity="0.7" stroke="white" stroke-width="0.8"/>
<circle cx="606.8" cy="313.7" r="4.8" fill="#2A9D78" fill-opacity="0.7" stroke="white" stroke-width="0.8"/>
<circle cx="537.9" cy="444.2" r="4.8" fill="#5A6E8C" fill-opacity="0.7" stroke="white" stroke-width="0.8"/>
<circle cx="596.2" cy="290.4" r="4.8" fill="#C44E52" fill-opacity="0.7" stroke="white" stroke-width="0.8"/>
<circle cx="539.2" cy="442.4" r="4.8" fill="#C9893F" fill-opacity="0.7" stroke="white" stroke-width="0.8"/>
<circle cx="582.0" cy="341.9" r="4.8" fill="#2A9D78" fill-opacity="0.7" stroke="white" stroke-width="0.8"/>
<circle cx="616.4" cy="440.2" r="4.8" fill="#5A6E8C" fill-opacity="0.7" stroke="white" stroke-width="0.8"/>
<circle cx="616.7" cy="442.4" r="4.8" fill="#C9893F" fill-opacity="0.7" stroke="white" stroke-width="0.8"/>
<circle cx="554.4" cy="442.5" r="4.8" fill="#5A6E8C" fill-opacity="0.7" stroke="white" stroke-width="0.8"/>
<circle cx="554.8" cy="442.7" r="4.8" fill="#C9893F" fill-opacity="0.7" stroke="white" stroke-width="0.8"/>
<circle cx="606.2" cy="323.8" r="4.8" fill="#2A9D78" fill-opacity="0.7" stroke="white" stroke-width="0.8"/>
<circle cx="521.8" cy="429.7" r="4.8" fill="#5A6E8C" fill-opacity="0.7" stroke="white" stroke-width="0.8"/>
<circle cx="583.7" cy="294.1" r="4.8" fill="#C44E52" fill-opacity="0.7" stroke="white" stroke-width="0.8"/>
<circle cx="524.0" cy="442.2" r="4.8" fill="#C9893F" fill-opacity="0.7" stroke="white" stroke-width="0.8"/>
<circle cx="566.0" cy="302.6" r="4.8" fill="#2A9D78" fill-opacity="0.7" stroke="white" stroke-width="0.8"/>
<circle cx="615.7" cy="305.6" r="4.8" fill="#2A9D78" fill-opacity="0.7" stroke="white" stroke-width="0.8"/>
<circle cx="588.6" cy="427.1" r="4.8" fill="#5A6E8C" fill-opacity="0.7" stroke="white" stroke-width="0.8"/>
<circle cx="589.2" cy="440.4" r="4.8" fill="#C9893F" fill-opacity="0.7" stroke="white" stroke-width="0.8"/>
<circle cx="647.0" cy="311.6" r="4.8" fill="#2A9D78" fill-opacity="0.7" stroke="white" stroke-width="0.8"/>
<circle cx="546.3" cy="422.4" r="4.8" fill="#5A6E8C" fill-opacity="0.7" stroke="white" stroke-width="0.8"/>
<circle cx="611.7" cy="284.6" r="4.8" fill="#C44E52" fill-opacity="0.7" stroke="white" stroke-width="0.8"/>
<circle cx="547.8" cy="440.5" r="4.8" fill="#C9893F" fill-opacity="0.7" stroke="white" stroke-width="0.8"/>
<circle cx="588.3" cy="304.9" r="4.8" fill="#2A9D78" fill-opacity="0.7" stroke="white" stroke-width="0.8"/>
<circle cx="557.6" cy="422.4" r="4.8" fill="#5A6E8C" fill-opacity="0.7" stroke="white" stroke-width="0.8"/>
<circle cx="559.1" cy="437.0" r="4.8" fill="#C9893F" fill-opacity="0.7" stroke="white" stroke-width="0.8"/>
<circle cx="617.9" cy="299.1" r="4.8" fill="#2A9D78" fill-opacity="0.7" stroke="white" stroke-width="0.8"/>
<circle cx="521.3" cy="297.3" r="4.8" fill="#C44E52" fill-opacity="0.7" stroke="white" stroke-width="0.8"/>
<circle cx="518.3" cy="438.7" r="4.8" fill="#5A6E8C" fill-opacity="0.7" stroke="white" stroke-width="0.8"/>
<circle cx="557.6" cy="284.1" r="4.8" fill="#C44E52" fill-opacity="0.7" stroke="white" stroke-width="0.8"/>
<circle cx="520.1" cy="439.6" r="4.8" fill="#C9893F" fill-opacity="0.7" stroke="white" stroke-width="0.8"/>
<circle cx="558.0" cy="325.7" r="4.8" fill="#2A9D78" fill-opacity="0.7" stroke="white" stroke-width="0.8"/>
<circle cx="490.4" cy="426.5" r="4.8" fill="#5A6E8C" fill-opacity="0.7" stroke="white" stroke-width="0.8"/>
<circle cx="602.2" cy="285.0" r="4.8" fill="#C44E52" fill-opacity="0.7" stroke="white" stroke-width="0.8"/>
<circle cx="495.0" cy="439.9" r="4.8" fill="#C9893F" fill-opacity="0.7" stroke="white" stroke-width="0.8"/>
<circle cx="595.4" cy="310.2" r="4.8" fill="#2A9D78" fill-opacity="0.7" stroke="white" stroke-width="0.8"/>
<circle cx="546.6" cy="416.6" r="4.8" fill="#5A6E8C" fill-opacity="0.7" stroke="white" stroke-width="0.8"/>
<circle cx="548.1" cy="438.3" r="4.8" fill="#C9893F" fill-opacity="0.7" stroke="white" stroke-width="0.8"/>
<circle cx="637.8" cy="299.0" r="4.8" fill="#2A9D78" fill-opacity="0.7" stroke="white" stroke-width="0.8"/>
<circle cx="588.6" cy="418.6" r="4.8" fill="#5A6E8C" fill-opacity="0.7" stroke="white" stroke-width="0.8"/>
<circle cx="588.9" cy="440.5" r="4.8" fill="#C9893F" fill-opacity="0.7" stroke="white" stroke-width="0.8"/>
<circle cx="534.2" cy="419.6" r="4.8" fill="#5A6E8C" fill-opacity="0.7" stroke="white" stroke-width="0.8"/>
<circle cx="602.1" cy="288.3" r="4.8" fill="#C44E52" fill-opacity="0.7" stroke="white" stroke-width="0.8"/>
<circle cx="539.1" cy="437.2" r="4.8" fill="#C9893F" fill-opacity="0.7" stroke="white" stroke-width="0.8"/>
<circle cx="535.2" cy="417.7" r="4.8" fill="#5A6E8C" fill-opacity="0.7" stroke="white" stroke-width="0.8"/>
<circle cx="536.7" cy="440.0" r="4.8" fill="#C9893F" fill-opacity="0.7" stroke="white" stroke-width="0.8"/>
<circle cx="607.6" cy="304.3" r="4.8" fill="#2A9D78" fill-opacity="0.7" stroke="white" stroke-width="0.8"/>
<circle cx="551.7" cy="336.0" r="4.8" fill="#C44E52" fill-opacity="0.7" stroke="white" stroke-width="0.8"/>
<circle cx="574.9" cy="393.4" r="4.8" fill="#2A9D78" fill-opacity="0.7" stroke="white" stroke-width="0.8"/>
<circle cx="568.1" cy="439.1" r="4.8" fill="#5A6E8C" fill-opacity="0.7" stroke="white" stroke-width="0.8"/>
<circle cx="569.4" cy="440.4" r="4.8" fill="#C9893F" fill-opacity="0.7" stroke="white" stroke-width="0.8"/>
<circle cx="649.2" cy="313.6" r="4.8" fill="#2A9D78" fill-opacity="0.7" stroke="white" stroke-width="0.8"/>
<text x="531.0" y="488.0" font-family="Arial, Helvetica, sans-serif" font-size="9" font-weight="400" text-anchor="middle" fill="#6B7280">runtime minutes (log scale)</text>
<text x="855.0" y="66.0" font-family="Arial, Helvetica, sans-serif" font-size="13" font-weight="700" text-anchor="middle" fill="#253041">Line tolerant-F1</text>
<line x1="712" y1="460.0" x2="998" y2="460.0" stroke="#D7DDE8" stroke-width="1"/>
<text x="704.0" y="464.0" font-family="Arial, Helvetica, sans-serif" font-size="8" font-weight="400" text-anchor="end" fill="#6B7280">0.0</text>
<line x1="712" y1="386.0" x2="998" y2="386.0" stroke="#D7DDE8" stroke-width="1"/>
<text x="704.0" y="390.0" font-family="Arial, Helvetica, sans-serif" font-size="8" font-weight="400" text-anchor="end" fill="#6B7280">0.2</text>
<line x1="712" y1="312.0" x2="998" y2="312.0" stroke="#D7DDE8" stroke-width="1"/>
<text x="704.0" y="316.0" font-family="Arial, Helvetica, sans-serif" font-size="8" font-weight="400" text-anchor="end" fill="#6B7280">0.4</text>
<line x1="712" y1="238.0" x2="998" y2="238.0" stroke="#D7DDE8" stroke-width="1"/>
<text x="704.0" y="242.0" font-family="Arial, Helvetica, sans-serif" font-size="8" font-weight="400" text-anchor="end" fill="#6B7280">0.6</text>
<line x1="712" y1="164.0" x2="998" y2="164.0" stroke="#D7DDE8" stroke-width="1"/>
<text x="704.0" y="168.0" font-family="Arial, Helvetica, sans-serif" font-size="8" font-weight="400" text-anchor="end" fill="#6B7280">0.8</text>
<line x1="712" y1="90.0" x2="998" y2="90.0" stroke="#D7DDE8" stroke-width="1"/>
<text x="704.0" y="94.0" font-family="Arial, Helvetica, sans-serif" font-size="8" font-weight="400" text-anchor="end" fill="#6B7280">1.0</text>
<circle cx="992.4" cy="413.1" r="4.8" fill="#5A6E8C" fill-opacity="0.7" stroke="white" stroke-width="0.8"/>
<circle cx="993.1" cy="425.6" r="4.8" fill="#C9893F" fill-opacity="0.7" stroke="white" stroke-width="0.8"/>
<circle cx="969.7" cy="318.7" r="4.8" fill="#2A9D78" fill-opacity="0.7" stroke="white" stroke-width="0.8"/>
<circle cx="953.2" cy="431.2" r="4.8" fill="#5A6E8C" fill-opacity="0.7" stroke="white" stroke-width="0.8"/>
<circle cx="957.5" cy="317.2" r="4.8" fill="#C44E52" fill-opacity="0.7" stroke="white" stroke-width="0.8"/>
<circle cx="953.1" cy="408.5" r="4.8" fill="#C9893F" fill-opacity="0.7" stroke="white" stroke-width="0.8"/>
<circle cx="922.8" cy="333.7" r="4.8" fill="#2A9D78" fill-opacity="0.7" stroke="white" stroke-width="0.8"/>
<circle cx="968.4" cy="423.9" r="4.8" fill="#5A6E8C" fill-opacity="0.7" stroke="white" stroke-width="0.8"/>
<circle cx="968.7" cy="427.0" r="4.8" fill="#C9893F" fill-opacity="0.7" stroke="white" stroke-width="0.8"/>
<circle cx="945.4" cy="323.4" r="4.8" fill="#2A9D78" fill-opacity="0.7" stroke="white" stroke-width="0.8"/>
<circle cx="988.9" cy="428.5" r="4.8" fill="#5A6E8C" fill-opacity="0.7" stroke="white" stroke-width="0.8"/>
<circle cx="989.7" cy="426.8" r="4.8" fill="#C9893F" fill-opacity="0.7" stroke="white" stroke-width="0.8"/>
<circle cx="970.7" cy="429.1" r="4.8" fill="#2A9D78" fill-opacity="0.7" stroke="white" stroke-width="0.8"/>
<circle cx="946.1" cy="422.8" r="4.8" fill="#5A6E8C" fill-opacity="0.7" stroke="white" stroke-width="0.8"/>
<circle cx="950.3" cy="429.3" r="4.8" fill="#C9893F" fill-opacity="0.7" stroke="white" stroke-width="0.8"/>
<circle cx="969.3" cy="429.1" r="4.8" fill="#5A6E8C" fill-opacity="0.7" stroke="white" stroke-width="0.8"/>
<circle cx="969.7" cy="427.8" r="4.8" fill="#C9893F" fill-opacity="0.7" stroke="white" stroke-width="0.8"/>
<circle cx="956.2" cy="410.8" r="4.8" fill="#5A6E8C" fill-opacity="0.7" stroke="white" stroke-width="0.8"/>
<circle cx="949.8" cy="314.2" r="4.8" fill="#C44E52" fill-opacity="0.7" stroke="white" stroke-width="0.8"/>
<circle cx="956.3" cy="413.6" r="4.8" fill="#C9893F" fill-opacity="0.7" stroke="white" stroke-width="0.8"/>
<circle cx="934.2" cy="426.1" r="4.8" fill="#2A9D78" fill-opacity="0.7" stroke="white" stroke-width="0.8"/>
<circle cx="969.6" cy="418.0" r="4.8" fill="#5A6E8C" fill-opacity="0.7" stroke="white" stroke-width="0.8"/>
<circle cx="969.9" cy="411.3" r="4.8" fill="#C9893F" fill-opacity="0.7" stroke="white" stroke-width="0.8"/>
<circle cx="950.7" cy="422.2" r="4.8" fill="#2A9D78" fill-opacity="0.7" stroke="white" stroke-width="0.8"/>
<circle cx="902.1" cy="422.1" r="4.8" fill="#5A6E8C" fill-opacity="0.7" stroke="white" stroke-width="0.8"/>
<circle cx="939.2" cy="315.7" r="4.8" fill="#C44E52" fill-opacity="0.7" stroke="white" stroke-width="0.8"/>
<circle cx="941.1" cy="422.8" r="4.8" fill="#C9893F" fill-opacity="0.7" stroke="white" stroke-width="0.8"/>
<circle cx="918.7" cy="314.8" r="4.8" fill="#2A9D78" fill-opacity="0.7" stroke="white" stroke-width="0.8"/>
<circle cx="920.9" cy="417.0" r="4.8" fill="#5A6E8C" fill-opacity="0.7" stroke="white" stroke-width="0.8"/>
<circle cx="963.4" cy="423.3" r="4.8" fill="#C9893F" fill-opacity="0.7" stroke="white" stroke-width="0.8"/>
<circle cx="958.9" cy="316.7" r="4.8" fill="#2A9D78" fill-opacity="0.7" stroke="white" stroke-width="0.8"/>
<circle cx="997.9" cy="429.1" r="4.8" fill="#5A6E8C" fill-opacity="0.7" stroke="white" stroke-width="0.8"/>
<circle cx="998.0" cy="425.0" r="4.8" fill="#C9893F" fill-opacity="0.7" stroke="white" stroke-width="0.8"/>
<circle cx="974.1" cy="429.1" r="4.8" fill="#2A9D78" fill-opacity="0.7" stroke="white" stroke-width="0.8"/>
<circle cx="964.4" cy="429.1" r="4.8" fill="#5A6E8C" fill-opacity="0.7" stroke="white" stroke-width="0.8"/>
<circle cx="964.0" cy="429.0" r="4.8" fill="#C9893F" fill-opacity="0.7" stroke="white" stroke-width="0.8"/>
<circle cx="955.6" cy="429.0" r="4.8" fill="#5A6E8C" fill-opacity="0.7" stroke="white" stroke-width="0.8"/>
<circle cx="975.1" cy="422.6" r="4.8" fill="#C9893F" fill-opacity="0.7" stroke="white" stroke-width="0.8"/>
<circle cx="957.0" cy="319.8" r="4.8" fill="#2A9D78" fill-opacity="0.7" stroke="white" stroke-width="0.8"/>
<circle cx="868.0" cy="319.7" r="4.8" fill="#C44E52" fill-opacity="0.7" stroke="white" stroke-width="0.8"/>
<circle cx="875.5" cy="420.1" r="4.8" fill="#5A6E8C" fill-opacity="0.7" stroke="white" stroke-width="0.8"/>
<circle cx="913.1" cy="315.5" r="4.8" fill="#C44E52" fill-opacity="0.7" stroke="white" stroke-width="0.8"/>
<circle cx="874.7" cy="426.9" r="4.8" fill="#C9893F" fill-opacity="0.7" stroke="white" stroke-width="0.8"/>
<circle cx="910.9" cy="322.1" r="4.8" fill="#2A9D78" fill-opacity="0.7" stroke="white" stroke-width="0.8"/>
<circle cx="879.8" cy="409.2" r="4.8" fill="#5A6E8C" fill-opacity="0.7" stroke="white" stroke-width="0.8"/>
<circle cx="954.1" cy="313.9" r="4.8" fill="#C44E52" fill-opacity="0.7" stroke="white" stroke-width="0.8"/>
<circle cx="879.0" cy="400.4" r="4.8" fill="#C9893F" fill-opacity="0.7" stroke="white" stroke-width="0.8"/>
<circle cx="942.6" cy="319.9" r="4.8" fill="#2A9D78" fill-opacity="0.7" stroke="white" stroke-width="0.8"/>
<circle cx="923.5" cy="420.8" r="4.8" fill="#5A6E8C" fill-opacity="0.7" stroke="white" stroke-width="0.8"/>
<circle cx="928.8" cy="410.6" r="4.8" fill="#C9893F" fill-opacity="0.7" stroke="white" stroke-width="0.8"/>
<circle cx="973.6" cy="314.2" r="4.8" fill="#2A9D78" fill-opacity="0.7" stroke="white" stroke-width="0.8"/>
<circle cx="895.9" cy="429.5" r="4.8" fill="#5A6E8C" fill-opacity="0.7" stroke="white" stroke-width="0.8"/>
<circle cx="954.1" cy="311.3" r="4.8" fill="#C44E52" fill-opacity="0.7" stroke="white" stroke-width="0.8"/>
<circle cx="904.7" cy="416.1" r="4.8" fill="#C9893F" fill-opacity="0.7" stroke="white" stroke-width="0.8"/>
<circle cx="898.7" cy="412.3" r="4.8" fill="#5A6E8C" fill-opacity="0.7" stroke="white" stroke-width="0.8"/>
<circle cx="905.5" cy="395.7" r="4.8" fill="#C9893F" fill-opacity="0.7" stroke="white" stroke-width="0.8"/>
<circle cx="950.8" cy="317.1" r="4.8" fill="#2A9D78" fill-opacity="0.7" stroke="white" stroke-width="0.8"/>
<circle cx="882.6" cy="322.6" r="4.8" fill="#C44E52" fill-opacity="0.7" stroke="white" stroke-width="0.8"/>
<circle cx="982.1" cy="428.4" r="4.8" fill="#5A6E8C" fill-opacity="0.7" stroke="white" stroke-width="0.8"/>
<circle cx="953.1" cy="418.4" r="4.8" fill="#C9893F" fill-opacity="0.7" stroke="white" stroke-width="0.8"/>
<circle cx="904.8" cy="422.9" r="4.8" fill="#2A9D78" fill-opacity="0.7" stroke="white" stroke-width="0.8"/>
<text x="855.0" y="488.0" font-family="Arial, Helvetica, sans-serif" font-size="9" font-weight="400" text-anchor="middle" fill="#6B7280">runtime minutes (log scale)</text>
<circle cx="356" cy="574" r="6" fill="#5A6E8C"/>
<text x="367.0" y="578.0" font-family="Arial, Helvetica, sans-serif" font-size="10" font-weight="400" text-anchor="start" fill="#253041">direct</text>
<circle cx="446" cy="574" r="6" fill="#C9893F"/>
<text x="457.0" y="578.0" font-family="Arial, Helvetica, sans-serif" font-size="10" font-weight="400" text-anchor="start" fill="#253041">prompt</text>
<circle cx="536" cy="574" r="6" fill="#2A9D78"/>
<text x="547.0" y="578.0" font-family="Arial, Helvetica, sans-serif" font-size="10" font-weight="400" text-anchor="start" fill="#253041">qlora</text>
<circle cx="626" cy="574" r="6" fill="#C44E52"/>
<text x="637.0" y="578.0" font-family="Arial, Helvetica, sans-serif" font-size="10" font-weight="400" text-anchor="start" fill="#253041">full</text>
</svg>