<svg xmlns="http://www.w3.org/2000/svg" width="980" height="560" viewBox="0 0 980 560">
<rect width="980" height="560" rx="18" fill="white"/>
<text x="490.0" y="36" font-family="Aptos, Calibri, Arial, sans-serif" font-size="20" font-weight="700" text-anchor="middle" fill="#243044">Mode-level Mean Performance Across Tasks</text>
<text x="20" y="269.0" font-family="Aptos, Calibri, Arial, sans-serif" font-size="12" font-weight="400" text-anchor="middle" fill="#243044">Score</text>
<line x1="88" y1="468.0" x2="944" y2="468.0" stroke="#D9DEE8" stroke-width="1"/>
<text x="74" y="472.0" font-family="Aptos, Calibri, Arial, sans-serif" font-size="11" font-weight="400" text-anchor="end" fill="#667085">0.0</text>
<line x1="88" y1="388.4" x2="944" y2="388.4" stroke="#D9DEE8" stroke-width="1"/>
<text x="74" y="392.4" font-family="Aptos, Calibri, Arial, sans-serif" font-size="11" font-weight="400" text-anchor="end" fill="#667085">0.2</text>
<line x1="88" y1="308.8" x2="944" y2="308.8" stroke="#D9DEE8" stroke-width="1"/>
<text x="74" y="312.8" font-family="Aptos, Calibri, Arial, sans-serif" font-size="11" font-weight="400" text-anchor="end" fill="#667085">0.4</text>
<line x1="88" y1="229.2" x2="944" y2="229.2" stroke="#D9DEE8" stroke-width="1"/>
<text x="74" y="233.2" font-family="Aptos, Calibri, Arial, sans-serif" font-size="11" font-weight="400" text-anchor="end" fill="#667085">0.6</text>
<line x1="88" y1="149.6" x2="944" y2="149.6" stroke="#D9DEE8" stroke-width="1"/>
<text x="74" y="153.60000000000002" font-family="Aptos, Calibri, Arial, sans-serif" font-size="11" font-weight="400" text-anchor="end" fill="#667085">0.8</text>
<line x1="88" y1="70.0" x2="944" y2="70.0" stroke="#D9DEE8" stroke-width="1"/>
<text x="74" y="74.0" font-family="Aptos, Calibri, Arial, sans-serif" font-size="11" font-weight="400" text-anchor="end" fill="#667085">1.0</text>
<rect x="103.4" y="404.4" width="25.0" height="63.6" rx="4" fill="#5B6C8F"/>
<rect x="246.1" y="433.6" width="25.0" height="34.4" rx="4" fill="#5B6C8F"/>
<rect x="388.7" y="428.0" width="25.0" height="40.0" rx="4" fill="#5B6C8F"/>
<rect x="531.4" y="447.4" width="25.0" height="20.6" rx="4" fill="#5B6C8F"/>
<rect x="674.1" y="426.1" width="25.0" height="41.9" rx="4" fill="#5B6C8F"/>
<rect x="816.7" y="365.9" width="25.0" height="102.1" rx="4" fill="#5B6C8F"/>
<rect x="131.4" y="393.0" width="25.0" height="75.0" rx="4" fill="#D98C40"/>
<rect x="274.0" y="446.8" width="25.0" height="21.2" rx="4" fill="#D98C40"/>
<rect x="416.7" y="428.6" width="25.0" height="39.4" rx="4" fill="#D98C40"/>
<rect x="559.4" y="446.8" width="25.0" height="21.2" rx="4" fill="#D98C40"/>
<rect x="702.0" y="423.0" width="25.0" height="45.0" rx="4" fill="#D98C40"/>
<rect x="844.7" y="360.9" width="25.0" height="107.1" rx="4" fill="#D98C40"/>
<rect x="159.3" y="176.6" width="25.0" height="291.4" rx="4" fill="#2E9F7D"/>
<rect x="302.0" y="314.8" width="25.0" height="153.2" rx="4" fill="#2E9F7D"/>
<rect x="444.7" y="327.6" width="25.0" height="140.4" rx="4" fill="#2E9F7D"/>
<rect x="587.3" y="388.6" width="25.0" height="79.4" rx="4" fill="#2E9F7D"/>
<rect x="730.0" y="350.2" width="25.0" height="117.8" rx="4" fill="#2E9F7D"/>
<rect x="872.7" y="216.5" width="25.0" height="251.5" rx="4" fill="#2E9F7D"/>
<rect x="187.3" y="127.1" width="25.0" height="340.9" rx="4" fill="#C94545"/>
<rect x="330.0" y="292.6" width="25.0" height="175.4" rx="4" fill="#C94545"/>
<rect x="472.6" y="307.2" width="25.0" height="160.8" rx="4" fill="#C94545"/>
<rect x="615.3" y="355.4" width="25.0" height="112.6" rx="4" fill="#C94545"/>
<rect x="758.0" y="313.3" width="25.0" height="154.7" rx="4" fill="#C94545"/>
<rect x="900.6" y="139.6" width="25.0" height="328.4" rx="4" fill="#C94545"/>
<text x="159.33333333333331" y="506" font-family="Aptos, Calibri, Arial, sans-serif" font-size="12" font-weight="400" text-anchor="middle" fill="#243044">Has-F1</text>
<text x="302.0" y="506" font-family="Aptos, Calibri, Arial, sans-serif" font-size="12" font-weight="400" text-anchor="middle" fill="#243044">Type macro-F1</text>
<text x="444.66666666666663" y="506" font-family="Aptos, Calibri, Arial, sans-serif" font-size="12" font-weight="400" text-anchor="middle" fill="#243044">Type multi-label F1</text>
<text x="587.3333333333334" y="506" font-family="Aptos, Calibri, Arial, sans-serif" font-size="12" font-weight="400" text-anchor="middle" fill="#243044">Line strict-F1</text>
<text x="730.0" y="506" font-family="Aptos, Calibri, Arial, sans-serif" font-size="12" font-weight="400" text-anchor="middle" fill="#243044">Line tolerant-F1</text>
<text x="872.6666666666666" y="506" font-family="Aptos, Calibri, Arial, sans-serif" font-size="12" font-weight="400" text-anchor="middle" fill="#243044">Line contract-hit</text>
<rect x="88" y="532" width="14" height="14" rx="3" fill="#5B6C8F"/>
<text x="108" y="544" font-family="Aptos, Calibri, Arial, sans-serif" font-size="12" font-weight="400" text-anchor="start" fill="#243044">direct</text>
<rect x="218" y="532" width="14" height="14" rx="3" fill="#D98C40"/>
<text x="238" y="544" font-family="Aptos, Calibri, Arial, sans-serif" font-size="12" font-weight="400" text-anchor="start" fill="#243044">prompt</text>
<rect x="348" y="532" width="14" height="14" rx="3" fill="#2E9F7D"/>
<text x="368" y="544" font-family="Aptos, Calibri, Arial, sans-serif" font-size="12" font-weight="400" text-anchor="start" fill="#243044">qlora</text>
<rect x="478" y="532" width="14" height="14" rx="3" fill="#C94545"/>
<text x="498" y="544" font-family="Aptos, Calibri, Arial, sans-serif" font-size="12" font-weight="400" text-anchor="start" fill="#243044">full</text>
</svg>