<svg xmlns="http://www.w3.org/2000/svg" width="980" height="560" viewBox="0 0 980 560">
<rect width="980" height="560" rx="18" fill="white"/>
<text x="490.0" y="36" font-family="Aptos, Calibri, Arial, sans-serif" font-size="20" font-weight="700" text-anchor="middle" fill="#243044">Structured Prompt Ablation</text>
<text x="20" y="269.0" font-family="Aptos, Calibri, Arial, sans-serif" font-size="12" font-weight="400" text-anchor="middle" fill="#243044">Score</text>
<line x1="88" y1="468.0" x2="944" y2="468.0" stroke="#D9DEE8" stroke-width="1"/>
<text x="74" y="472.0" font-family="Aptos, Calibri, Arial, sans-serif" font-size="11" font-weight="400" text-anchor="end" fill="#667085">0.0</text>
<line x1="88" y1="388.4" x2="944" y2="388.4" stroke="#D9DEE8" stroke-width="1"/>
<text x="74" y="392.4" font-family="Aptos, Calibri, Arial, sans-serif" font-size="11" font-weight="400" text-anchor="end" fill="#667085">0.2</text>
<line x1="88" y1="308.8" x2="944" y2="308.8" stroke="#D9DEE8" stroke-width="1"/>
<text x="74" y="312.8" font-family="Aptos, Calibri, Arial, sans-serif" font-size="11" font-weight="400" text-anchor="end" fill="#667085">0.4</text>
<line x1="88" y1="229.2" x2="944" y2="229.2" stroke="#D9DEE8" stroke-width="1"/>
<text x="74" y="233.2" font-family="Aptos, Calibri, Arial, sans-serif" font-size="11" font-weight="400" text-anchor="end" fill="#667085">0.6</text>
<line x1="88" y1="149.6" x2="944" y2="149.6" stroke="#D9DEE8" stroke-width="1"/>
<text x="74" y="153.60000000000002" font-family="Aptos, Calibri, Arial, sans-serif" font-size="11" font-weight="400" text-anchor="end" fill="#667085">0.8</text>
<line x1="88" y1="70.0" x2="944" y2="70.0" stroke="#D9DEE8" stroke-width="1"/>
<text x="74" y="74.0" font-family="Aptos, Calibri, Arial, sans-serif" font-size="11" font-weight="400" text-anchor="end" fill="#667085">1.0</text>
<rect x="135.0" y="354.1" width="27.0" height="113.9" rx="4" fill="#667085"/>
<rect x="349.0" y="364.0" width="27.0" height="104.0" rx="4" fill="#667085"/>
<rect x="563.0" y="440.0" width="27.0" height="28.0" rx="4" fill="#667085"/>
<rect x="777.0" y="441.2" width="27.0" height="26.8" rx="4" fill="#667085"/>
<rect x="165.0" y="364.4" width="27.0" height="103.6" rx="4" fill="#D98C40"/>
<rect x="379.0" y="360.3" width="27.0" height="107.7" rx="4" fill="#D98C40"/>
<rect x="593.0" y="439.9" width="27.0" height="28.1" rx="4" fill="#D98C40"/>
<rect x="807.0" y="440.6" width="27.0" height="27.4" rx="4" fill="#D98C40"/>
<rect x="195.0" y="375.4" width="27.0" height="92.6" rx="4" fill="#2E9F7D"/>
<rect x="409.0" y="367.8" width="27.0" height="100.2" rx="4" fill="#2E9F7D"/>
<rect x="623.0" y="438.0" width="27.0" height="30.0" rx="4" fill="#2E9F7D"/>
<rect x="837.0" y="454.3" width="27.0" height="13.7" rx="4" fill="#2E9F7D"/>
<rect x="225.0" y="382.3" width="27.0" height="85.7" rx="4" fill="#C94545"/>
<rect x="439.0" y="375.1" width="27.0" height="92.9" rx="4" fill="#C94545"/>
<rect x="653.0" y="437.3" width="27.0" height="30.7" rx="4" fill="#C94545"/>
<rect x="867.0" y="455.3" width="27.0" height="12.7" rx="4" fill="#C94545"/>
<text x="195.0" y="506" font-family="Aptos, Calibri, Arial, sans-serif" font-size="12" font-weight="400" text-anchor="middle" fill="#243044">7B-Type</text>
<text x="409.0" y="506" font-family="Aptos, Calibri, Arial, sans-serif" font-size="12" font-weight="400" text-anchor="middle" fill="#243044">32B-Type</text>
<text x="623.0" y="506" font-family="Aptos, Calibri, Arial, sans-serif" font-size="12" font-weight="400" text-anchor="middle" fill="#243044">7B-Line</text>
<text x="837.0" y="506" font-family="Aptos, Calibri, Arial, sans-serif" font-size="12" font-weight="400" text-anchor="middle" fill="#243044">32B-Line</text>
<rect x="88" y="532" width="14" height="14" rx="3" fill="#667085"/>
<text x="108" y="544" font-family="Aptos, Calibri, Arial, sans-serif" font-size="12" font-weight="400" text-anchor="start" fill="#243044">P0</text>
<rect x="218" y="532" width="14" height="14" rx="3" fill="#D98C40"/>
<text x="238" y="544" font-family="Aptos, Calibri, Arial, sans-serif" font-size="12" font-weight="400" text-anchor="start" fill="#243044">P1</text>
<rect x="348" y="532" width="14" height="14" rx="3" fill="#2E9F7D"/>
<text x="368" y="544" font-family="Aptos, Calibri, Arial, sans-serif" font-size="12" font-weight="400" text-anchor="start" fill="#243044">P2</text>
<rect x="478" y="532" width="14" height="14" rx="3" fill="#C94545"/>
<text x="498" y="544" font-family="Aptos, Calibri, Arial, sans-serif" font-size="12" font-weight="400" text-anchor="start" fill="#243044">P3</text>
</svg>